<svg width="68" height="51" viewBox="0 0 68 51" fill="none" xmlns="http://www.w3.org/2000/svg">
<g id="Frame" clip-path="url(#clip0_4_3497)">
<g id="Group">
<g id="Group_2">
<path id="Vector" d="M7.24882 3.02481C24.0215 1.21837 40.9382 3.99133 57.6698 1.49271C58.4514 1.37453 58.1182 0.154767 57.3407 0.272945C40.7284 2.75046 23.9063 -0.0351617 7.24882 1.75861C6.46716 1.84302 6.45893 3.10922 7.24882 3.02481Z" fill="#727272"/>
</g>
<g id="Group_3">
<path id="Vector_2" d="M7.08426 1.78402C5.4469 2.30738 5.6526 4.50211 6.52065 5.66701C7.94409 7.57474 11.1407 7.61695 13.2264 7.41436C14.0122 7.33839 14.0163 6.07219 13.2264 6.14816C11.8771 6.279 10.4783 6.26634 9.16594 5.8696C8.48302 5.66279 7.76307 5.37157 7.37224 4.71315C7.17066 4.37127 6.78394 3.20638 7.41338 3.00801C8.17036 2.76321 7.84535 1.53922 7.08426 1.78402Z" fill="#727272"/>
</g>
<g id="Group_4">
<path id="Vector_3" d="M54.7818 1.88949C55.6498 1.83462 56.4891 1.68268 57.353 1.5645C58.723 1.37457 59.4265 1.75443 59.6651 3.23166C59.8625 4.45986 59.1097 4.81862 58.0483 5.16471C57.5464 5.32932 57.0198 5.43061 56.5014 5.53613C55.115 5.81469 53.7245 5.95397 52.3134 6.00462C51.5235 6.03416 51.5194 7.30036 52.3134 7.27081C54.7201 7.18218 61.4793 7.08932 61.216 3.18523C61.1502 2.21026 60.2328 0.863876 59.373 0.424929C58.0894 -0.233492 56.09 0.538886 54.7777 0.623299C53.9919 0.673947 53.9878 1.94014 54.7818 1.88949Z" fill="#727272"/>
</g>
<g id="Group_5">
<path id="Vector_4" d="M9.05488 7.14412C8.8862 9.82423 5.92414 11.3394 4.3526 13.1796C3.1184 14.6273 2.1475 16.2945 1.44401 18.0714C-0.0699346 21.8784 -0.357913 26.1455 0.411401 30.1593C1.99528 38.3938 8.05929 45.189 15.6331 48.1055C16.3778 48.3925 16.6987 47.1685 15.9623 46.8857C8.09632 43.8553 1.98294 36.2623 1.30002 27.5552C0.975017 23.4189 1.82661 19.1139 4.07696 15.6318C5.94471 12.7449 10.0546 10.8963 10.2891 7.14412C10.3384 6.33376 9.10425 6.33376 9.05488 7.14412Z" fill="#727272"/>
</g>
<g id="Group_6">
<path id="Vector_5" d="M55.8226 6.60395C55.8226 9.93404 58.1799 12.0233 60.5784 13.8846C62.6395 15.48 64.2357 17.0332 65.2519 19.536C66.1364 21.7096 66.6259 24.0563 66.737 26.4072C67.1402 35.0553 62.2445 43.083 54.7201 46.8604C54.0084 47.2192 54.6296 48.3123 55.3413 47.9536C62.3309 44.4462 67.2595 37.3176 67.9177 29.3321C68.2509 25.293 67.568 20.8444 65.5686 17.3033C63.3677 13.3992 57.0568 11.6096 57.0527 6.60395C57.0568 5.78937 55.8226 5.78937 55.8226 6.60395Z" fill="#727272"/>
</g>
<g id="Group_7">
<path id="Vector_6" d="M15.267 47.1769C14.4688 48.996 15.9005 50.5661 17.6777 50.6505C19.6072 50.7476 21.6436 50.2876 23.5772 50.2031C25.8193 50.1018 28.0614 50.0976 30.3036 50.1314C38.6714 50.2622 47.0351 50.9164 55.3659 49.7515C55.6498 49.7135 55.7938 49.3928 55.8185 49.1395C55.8843 48.4305 55.8267 47.9071 55.6251 47.2402C55.3906 46.4636 54.2017 46.7971 54.4362 47.5779C54.646 48.0886 54.6953 48.612 54.5843 49.1395C54.7365 48.9369 54.8846 48.7344 55.0368 48.5275C48.5408 49.435 41.9873 49.2071 35.4543 48.996C32.2865 48.8947 29.1146 48.8019 25.9468 48.8568C24.4987 48.8821 23.0506 48.9412 21.6025 49.0425C20.8126 49.0973 20.0268 49.1733 19.2411 49.2535C18.661 49.3126 15.4439 49.8233 16.3284 47.8058C16.6534 47.0756 15.592 46.4341 15.267 47.1769Z" fill="#727272"/>
</g>
<g id="Group_8">
<path id="Vector_7" d="M7.08016 13.7917C2.05287 20.1353 1.66205 28.9902 6.17508 35.7433C6.39724 36.0767 6.93205 35.7602 6.7099 35.4225C2.36142 28.9185 2.66174 20.3675 7.52035 14.2349C7.76308 13.9268 7.33111 13.4752 7.08016 13.7917Z" fill="#727272"/>
</g>
<g id="Group_9">
<path id="Vector_8" d="M7.41338 38.0941C7.81655 38.6934 8.27731 39.2463 8.79156 39.7486C9.07954 40.0272 9.51562 39.584 9.22764 39.3012C8.75042 38.8369 8.32257 38.3305 7.94408 37.7776C7.72193 37.4441 7.18711 37.7565 7.41338 38.0941Z" fill="#727272"/>
</g>
<g id="Group_10">
<path id="Vector_9" d="M10.865 41.7366C11.2641 41.7366 11.2641 41.1035 10.865 41.1035C10.466 41.1035 10.466 41.7366 10.865 41.7366Z" fill="#727272"/>
</g>
<g id="Group_11">
<path id="Vector_10" d="M54.6296 6.63776C54.3128 7.85331 54.0413 9.07729 54.5062 10.2928C54.9381 11.4197 55.8144 12.4369 56.559 13.3697C58.3445 15.5982 61.9977 17.8478 62.1705 20.9542C62.1911 21.3594 62.8082 21.3636 62.7876 20.9542C62.6601 18.6286 60.9898 17.1387 59.4512 15.6277C58.4597 14.6528 57.5258 13.6187 56.6701 12.5129C56.0941 11.7658 55.4441 10.9766 55.1109 10.0776C54.7036 8.98444 54.9381 7.90817 55.222 6.81081C55.3248 6.41407 54.7283 6.24524 54.6296 6.63776Z" fill="#727272"/>
</g>
<g id="Group_12">
<path id="Vector_11" d="M62.4379 22.423C62.5243 23.2334 62.6107 24.0437 62.6971 24.8541C62.7382 25.255 63.3594 25.2593 63.3141 24.8541C63.2278 24.0437 63.1414 23.2334 63.055 22.423C63.0138 22.022 62.3967 22.0178 62.4379 22.423Z" fill="#727272"/>
</g>
<g id="Group_13">
<path id="Vector_12" d="M62.4955 26.5212C62.5408 26.7576 62.5037 26.9813 62.4173 27.2007C62.3556 27.3611 62.4873 27.5468 62.6313 27.589C62.8082 27.6397 62.948 27.5257 63.0097 27.3696C63.1373 27.0404 63.1537 26.6985 63.0879 26.3524C63.018 25.9557 62.4215 26.1245 62.4955 26.5212Z" fill="#727272"/>
</g>
<g id="Group_14">
<path id="Vector_13" d="M35.7423 21.8911C37.2151 19.021 39.9879 17.1429 43.2091 17.3075C47.0434 17.5016 51.0751 20.9246 48.3887 24.9679C46.813 27.3357 43.9826 28.8678 41.8968 30.7333C39.5806 32.8057 37.4619 35.089 35.5078 37.5286C35.0059 38.1532 35.8739 39.0522 36.3799 38.4233C39.3585 34.705 42.7278 31.5606 46.4304 28.623C48.9029 26.6562 51.6387 23.6722 50.1371 20.2155C48.8947 17.3539 45.4636 15.9484 42.5715 16.0328C39.1651 16.1341 36.2442 18.1938 34.6726 21.2495C34.3065 21.9713 35.372 22.6128 35.7423 21.8911Z" fill="#727272"/>
</g>
<g id="Group_15">
<path id="Vector_14" d="M35.4502 20.9077C32.8131 17.8647 29.5219 14.7287 25.2516 14.9566C22.0838 15.1255 19.3563 17.5903 18.8996 20.836C18.336 24.7907 21.2158 28.2601 24.0215 30.5519C27.469 33.3671 32.6691 34.342 35.2486 38.1575C35.697 38.8244 36.7666 38.1913 36.3141 37.5202C34.7055 35.1397 32.3647 33.9158 29.8798 32.6833C26.7203 31.1175 23.606 29.1802 21.5737 26.1582C19.3069 22.7944 19.6813 17.6494 24.075 16.417C28.3741 15.2141 31.9944 18.827 34.5739 21.8025C35.1046 22.4145 35.9767 21.5155 35.4502 20.9077Z" fill="#727272"/>
</g>
</g>
</g>
<defs>
<clipPath id="clip0_4_3497">
<rect width="68" height="50.5" fill="white" transform="translate(0 0.163269)"/>
</clipPath>
</defs>
</svg>
