<svg width="55" height="49" viewBox="0 0 55 49" fill="none" xmlns="http://www.w3.org/2000/svg">
<g id="Frame" clip-path="url(#clip0_4_3354)">
<g id="Group">
<g id="Group_2">
<path id="Vector" d="M9.12932 1.58758C21.7023 3.25942 34.3918 3.52221 47.0231 2.3714C47.8795 2.29438 47.8885 0.935153 47.0231 1.01218C34.3918 2.16298 21.7023 1.9002 9.12932 0.228357C8.27737 0.115089 8.28185 1.47884 9.12932 1.58758Z" fill="#727272"/>
</g>
<g id="Group_3">
<path id="Vector_2" d="M12.0304 47.4885C17.465 48.1862 22.9354 48.526 28.4147 48.449C33.235 48.3811 38.9251 48.594 43.4449 46.6775C44.2296 46.3422 43.8843 45.0283 43.0862 45.3681C38.4498 47.3345 32.5086 47.0671 27.5493 47.0989C22.3569 47.1351 17.178 46.7908 12.0259 46.1293C11.174 46.0205 11.1785 47.3798 12.0304 47.4885Z" fill="#727272"/>
</g>
<g id="Group_4">
<path id="Vector_3" d="M8.6047 0.541002C2.33167 6.42191 -0.591861 15.1889 0.0986657 23.7384C0.452897 28.1559 1.69046 32.451 3.5513 36.4562C5.24623 40.108 7.74378 45.341 11.4924 47.2394C12.2636 47.629 12.9452 46.4601 12.1694 46.0659C8.68093 44.2989 6.30892 39.2109 4.71264 35.7721C2.85629 31.7623 1.64114 27.4083 1.39004 22.9818C0.941646 15.0031 3.71272 6.97919 9.55978 1.50152C10.1965 0.907993 9.24142 -0.0525247 8.6047 0.541002Z" fill="#727272"/>
</g>
<g id="Group_5">
<path id="Vector_4" d="M46.5478 2.1856C53.1661 6.37653 53.7893 15.4154 53.6279 22.5332C53.4486 30.471 52.4755 43.0484 43.0862 45.3681C42.2477 45.5765 42.6019 46.8859 43.4449 46.6775C53.2468 44.2581 54.6547 31.7759 54.9507 23.3759C55.2242 15.515 54.5337 5.63802 47.2248 1.01214C46.4895 0.55 45.8169 1.72346 46.5478 2.1856Z" fill="#727272"/>
</g>
<g id="Group_6">
<path id="Vector_5" d="M13.5774 1.59658C8.64055 6.96551 6.46135 15.9318 7.29537 23.1221C7.77963 27.304 9.08894 31.4542 10.062 35.5364C11.0395 39.6276 12.0483 43.6872 14.2634 47.2982C14.7208 48.0412 15.8821 47.3571 15.4247 46.614C13.3442 43.225 12.3757 39.4373 11.4565 35.5998C10.5686 31.9027 9.53285 28.2011 8.84681 24.4632C7.54647 17.3454 9.58218 7.93962 14.528 2.5571C15.1154 1.91373 14.1648 0.953216 13.5774 1.59658Z" fill="#727272"/>
</g>
<g id="Group_7">
<path id="Vector_6" d="M20.2405 2.163C16.5637 8.70539 14.6311 16.1358 14.7298 23.6659C14.7791 27.2814 15.2903 30.9015 16.2678 34.3811C17.4829 38.6989 19.3303 42.7947 20.1374 47.2303C20.2943 48.0911 21.5902 47.7241 21.4332 46.8678C20.7293 42.985 19.2361 39.3694 18.0479 35.6271C16.8955 31.9934 16.205 28.2465 16.0884 24.4271C15.8552 16.8743 17.7116 9.41218 21.4019 2.84714C21.8323 2.08597 20.671 1.40183 20.2405 2.163Z" fill="#727272"/>
</g>
<g id="Group_8">
<path id="Vector_7" d="M24.2043 3.46335C25.4822 11.0116 23.9308 18.5734 24.0608 26.1533C24.1191 29.6148 24.8859 32.8362 25.3343 36.2433C25.8006 39.7818 25.0025 43.42 24.5675 46.9313C24.4599 47.7967 25.8051 47.7876 25.9127 46.9313C26.3521 43.3882 27.1458 39.7229 26.6795 36.1527C26.2042 32.5009 25.4015 29.0394 25.397 25.3242C25.3881 17.8892 26.7512 10.5087 25.5002 3.10543C25.3522 2.24458 24.0564 2.60704 24.2043 3.46335Z" fill="#727272"/>
</g>
<g id="Group_9">
<path id="Vector_8" d="M29.2488 2.83348C31.6118 9.65225 31.8988 16.8471 32.1364 24.0011C32.3965 31.7713 32.0109 39.4192 30.576 47.0671C30.4146 47.9234 31.7104 48.2904 31.8719 47.4296C33.3292 39.6639 33.7462 31.8891 33.4816 24.0011C33.2395 16.7293 32.9435 9.39853 30.5446 2.47102C30.2621 1.65549 28.9618 2.00888 29.2488 2.83348Z" fill="#727272"/>
</g>
<g id="Group_10">
<path id="Vector_9" d="M34.9075 2.86529C35.4052 4.40122 36.4813 5.42516 37.3064 6.77532C38.248 8.31578 38.7637 10.0601 39.0417 11.8362C39.647 15.7145 39.36 19.774 39.3511 23.6841C39.3421 27.9384 39.6649 32.4374 38.5753 36.5921C37.6158 40.2394 35.4142 43.3837 34.6788 47.108C34.5084 47.9643 35.8043 48.3268 35.9747 47.4704C36.7638 43.4834 39.2031 40.108 40.064 36.1391C40.9473 32.0795 40.6873 27.8116 40.6962 23.6841C40.7052 19.8692 40.9339 15.9682 40.4362 12.176C40.2165 10.4996 39.8398 8.84134 39.1224 7.30995C38.3242 5.60186 36.7862 4.30154 36.2078 2.50737C35.9343 1.67824 34.634 2.03164 34.9075 2.86529Z" fill="#727272"/>
</g>
<g id="Group_11">
<path id="Vector_10" d="M41.4496 2.65224C44.122 5.18946 45.4089 9.23994 46.3729 12.7377C47.3773 16.3804 47.041 20.2678 46.8168 23.9966C46.3639 31.5629 45.0995 39.1202 41.5078 45.8619C41.0953 46.6322 42.2567 47.3208 42.6692 46.5461C46.4985 39.3558 47.7764 31.2729 48.2024 23.2082C48.4176 19.1487 48.5925 15.1843 47.3325 11.2742C46.2384 7.88072 45.0322 4.19269 42.4001 1.68719C41.7724 1.09367 40.8173 2.05418 41.4496 2.65224Z" fill="#727272"/>
</g>
<g id="Group_12">
<path id="Vector_11" d="M13.4698 6.05041C13.3308 6.40833 13.1783 6.76173 13.0124 7.1106C12.8017 7.55008 13.0483 8.15267 13.5953 8.13455C13.9854 8.12095 14.2948 7.94426 14.5728 7.67694C14.6625 7.59086 14.7522 7.50024 14.8374 7.41416C14.9495 7.30089 14.8015 7.48212 14.8867 7.37791C14.8688 7.4051 14.7746 7.39604 14.8598 7.4051C14.6446 7.11966 14.4293 6.82969 14.2096 6.54426C14.1513 6.84782 14.0886 7.15138 14.0303 7.45947C13.9585 7.8174 14.1334 8.19345 14.5011 8.29765C14.8329 8.38827 15.2589 8.18439 15.3306 7.82193C15.3889 7.51837 15.4517 7.21481 15.51 6.90672C15.5996 6.44458 15.3172 6.09118 14.8598 6.04588C14.4876 6.00963 14.1513 6.20898 13.8868 6.45364C13.7926 6.53973 13.7119 6.63034 13.6177 6.71642C13.5863 6.74361 13.5594 6.77079 13.5281 6.79798C13.5415 6.78439 13.555 6.77532 13.5684 6.76173C13.5012 6.79798 13.5012 6.80251 13.5774 6.77079C13.5012 6.78892 13.5056 6.79345 13.5908 6.77079C13.7836 7.1106 13.9765 7.4504 14.1737 7.79474C14.389 7.34167 14.5863 6.87953 14.7656 6.41287C14.8957 6.06853 14.6221 5.66529 14.2948 5.57468C13.9182 5.47047 13.6043 5.70607 13.4698 6.05041Z" fill="#727272"/>
</g>
<g id="Group_13">
<path id="Vector_12" d="M10.1382 14.1831C10.0754 14.5637 10.0127 14.9442 9.94988 15.3203C9.90056 15.6239 9.98127 15.9229 10.2593 16.086C10.5059 16.231 10.8781 16.2038 11.0754 15.9818C11.2054 15.8323 11.3354 15.6828 11.4655 15.5332C11.5506 15.4336 11.6717 15.2478 11.7748 15.1934C11.6627 15.2251 11.5506 15.2569 11.4341 15.284C11.4565 15.2795 11.4834 15.2795 11.5058 15.275C11.3937 15.2433 11.2816 15.2116 11.165 15.1844C11.183 15.198 11.2009 15.2116 11.2188 15.2251C11.1067 15.0303 10.9946 14.8355 10.887 14.6362C10.9229 15.0258 10.8153 15.4607 10.7704 15.8549C10.7077 16.4213 11.3758 16.6297 11.7838 16.4439C12.3129 16.1947 12.6672 15.7371 12.8555 15.1889C12.4788 15.2886 12.1067 15.3883 11.73 15.4879C11.7166 15.4018 11.7031 15.3158 11.6897 15.2297C11.4699 16.0769 12.7703 16.4394 12.9855 15.5921C13.0842 15.207 12.9945 14.7857 12.6806 14.5274C12.277 14.1967 11.7345 14.3145 11.5551 14.8264C11.4744 15.053 11.3085 15.1708 11.1023 15.2705C11.4386 15.4653 11.7748 15.6601 12.1156 15.8595C12.1829 15.2523 12.5057 14.174 11.6807 13.943C10.9857 13.7481 10.4969 14.5818 10.1203 15.0213C10.4969 15.2433 10.8691 15.4607 11.2457 15.6828C11.3085 15.3022 11.3713 14.9216 11.4341 14.5455C11.4924 14.1831 11.3399 13.8116 10.9633 13.7074C10.6449 13.6213 10.1965 13.8206 10.1382 14.1831Z" fill="#727272"/>
</g>
<g id="Group_14">
<path id="Vector_13" d="M9.55977 22.3701C9.60461 22.9047 9.65393 23.4393 9.69877 23.9694C9.76603 24.7261 10.7749 24.9028 11.0215 24.1507C11.1561 23.7338 11.3444 23.3578 11.582 22.9863C11.174 22.9319 10.7615 22.8775 10.3534 22.8232C10.5104 23.2173 10.618 23.6206 10.6763 24.0465C10.7435 24.5267 11.322 24.6083 11.6627 24.4542C11.8331 24.3772 11.9721 24.2277 12.0618 24.0646C12.1022 23.9921 12.1336 23.906 12.1605 23.829C12.1739 23.7882 12.1829 23.7474 12.1963 23.7067C12.2187 23.6387 12.2098 23.6432 12.1784 23.7202C12.0797 23.7791 11.9811 23.838 11.8824 23.8969C11.9049 23.8879 11.9318 23.8834 11.9542 23.8743C11.8331 23.8743 11.7165 23.8743 11.5955 23.8743C11.5865 23.8698 11.5775 23.8652 11.5731 23.8562C11.4923 23.7746 11.4116 23.6931 11.3309 23.6115C11.3444 23.6296 11.3533 23.6478 11.3668 23.6659C11.3444 23.4892 11.322 23.317 11.2995 23.1403C11.2951 23.163 11.2951 23.1856 11.2906 23.2037C11.2412 23.5662 11.3758 23.9332 11.7614 24.0419C12.0753 24.128 12.5416 23.9332 12.5909 23.5662C12.6313 23.2717 12.6088 23.0044 12.3936 22.7824C12.2143 22.6012 11.9407 22.5151 11.6896 22.5423C11.4296 22.574 11.2009 22.728 11.0619 22.95C11.0036 23.0452 10.9229 23.1766 10.9184 23.2853C10.9139 23.4439 10.8467 23.3306 10.9901 23.2672C11.3175 23.4031 11.6493 23.539 11.9766 23.6749C11.9183 23.2536 11.8107 22.8503 11.6538 22.4516C11.4385 21.917 10.757 21.763 10.4252 22.2885C10.1292 22.7552 9.90055 23.2536 9.73016 23.7746C10.1696 23.8335 10.609 23.8969 11.0529 23.9558C11.0081 23.4212 10.9588 22.8866 10.9139 22.3565C10.8825 21.9895 10.6269 21.6769 10.2413 21.6769C9.89607 21.6905 9.52838 22.0031 9.55977 22.3701Z" fill="#727272"/>
</g>
<g id="Group_15">
<path id="Vector_14" d="M11.1785 31.9572C11.2233 32.741 11.6134 33.4251 12.2905 33.8238C12.7389 34.0821 13.2949 33.7513 13.3039 33.2348C13.3084 32.8361 13.398 32.4691 13.5505 32.1021C13.1738 32.2018 12.8017 32.3015 12.425 32.4012C12.6089 32.6277 12.8061 32.8271 13.0259 33.0128C13.3846 33.3164 14.0392 33.2575 14.1513 32.7138C14.1782 32.5915 14.2096 32.4873 14.25 32.374C13.8733 32.4737 13.5012 32.5733 13.1245 32.673C13.1649 32.6504 13.1873 32.6775 13.1828 32.75C13.3263 33.0898 13.8195 33.1623 14.102 32.9947C14.4473 32.7908 14.4876 32.4057 14.3441 32.0659C14.2859 31.93 14.1917 31.8076 14.0751 31.7125C13.6581 31.3818 13.1469 31.5041 12.9496 32.0115C12.9048 32.1248 12.8734 32.2335 12.851 32.3513C13.2276 32.2517 13.5998 32.152 13.9765 32.0523C13.7567 31.8665 13.5595 31.6627 13.3756 31.4407C13.0169 30.9966 12.425 31.3274 12.2501 31.7397C12.0528 32.2154 11.9632 32.7183 11.9542 33.2348C12.2905 33.04 12.6268 32.8452 12.9676 32.6458C12.7075 32.4963 12.5371 32.2607 12.5192 31.9526C12.4743 31.0918 11.1292 31.0827 11.1785 31.9572Z" fill="#727272"/>
</g>
<g id="Group_16">
<path id="Vector_15" d="M13.9496 41.2768C14.1065 41.6846 14.2948 42.0607 14.5504 42.4186C14.9495 42.9713 15.7431 42.7674 15.8059 42.0742C15.8104 42.0335 15.8821 41.5306 15.8552 41.5079C15.6624 41.6302 15.4741 41.7526 15.2813 41.8749C15.3261 41.9383 15.3665 41.9972 15.4158 42.0561C15.5862 42.2736 15.7969 42.4594 16.0705 42.5364C16.2812 42.5907 16.5278 42.5636 16.7117 42.4458C16.8327 42.3642 16.9179 42.2691 16.9807 42.1377C17.0031 42.0833 17.0255 42.0289 17.048 41.9746C17.1511 41.6484 16.9538 41.594 16.4606 41.8115C16.7296 42.6361 18.0299 42.2827 17.7564 41.449C17.5681 40.8781 17.0211 40.5066 16.4247 40.7331C16.1826 40.8283 15.9718 41.0095 15.8552 41.2451C15.8194 41.3176 15.6893 41.6302 15.7342 41.7208C15.9942 41.5713 16.2498 41.4173 16.5099 41.2678C16.474 41.2225 16.4381 41.1817 16.4068 41.1364C16.1915 40.6969 15.5683 40.4477 15.1199 40.6108C14.4876 40.8374 14.5145 41.517 14.4652 42.0788C14.8822 41.9655 15.2992 41.8522 15.7207 41.7344C15.5369 41.4807 15.371 41.2134 15.2544 40.9189C14.9315 40.1124 13.6312 40.4613 13.9496 41.2768Z" fill="#727272"/>
</g>
<g id="Group_17">
<path id="Vector_16" d="M21.1373 6.23611C20.653 6.6031 20.2495 7.03805 19.9849 7.59533C19.6397 8.32025 20.4423 8.89112 21.0431 8.41992C21.1866 8.30665 21.3301 8.19339 21.4736 8.08012C21.5364 8.03028 21.5991 7.98044 21.6664 7.9306C21.6978 7.90342 21.7292 7.88076 21.7606 7.85358C21.8727 7.77203 21.8144 7.78562 21.5857 7.88983C21.4736 7.85811 21.3615 7.8264 21.2449 7.79921C21.2584 7.80827 21.2718 7.81733 21.2853 7.8264C21.2046 7.74484 21.1238 7.66329 21.0431 7.58174C21.0297 7.52284 21.0117 7.46847 20.9983 7.40957C21.0028 7.34614 21.0028 7.33708 20.9893 7.39144C20.9579 7.4141 20.949 7.56814 20.949 7.5908C20.9176 7.79921 20.9355 8.00309 21.0431 8.19339C21.1418 8.36555 21.3167 8.5196 21.5095 8.56944C21.5902 8.59209 21.6933 8.60115 21.7785 8.60115C21.8592 8.60115 21.931 8.58756 22.0027 8.56038C22.0969 8.53319 22.0655 8.52413 21.9041 8.53319C21.8054 8.47429 21.7068 8.41539 21.6081 8.35649C21.6216 8.37008 21.635 8.38368 21.6485 8.39727C21.5902 8.29759 21.5319 8.19792 21.4736 8.09824C21.4781 8.11183 21.4826 8.12995 21.487 8.14355C21.5095 7.96685 21.5319 7.79468 21.5543 7.61798C21.5453 7.63157 21.5409 7.64517 21.5319 7.65876C21.1238 8.42898 22.2852 9.11766 22.6932 8.3429C22.8681 8.01669 22.8277 7.6497 22.5542 7.39144C22.4107 7.25552 22.2179 7.17397 22.0206 7.16944C21.9085 7.16491 21.7785 7.2374 21.6799 7.22834C21.792 7.26005 21.9041 7.29177 22.0206 7.31895C22.0027 7.30536 21.9848 7.29177 21.9713 7.28271C22.052 7.36426 22.1327 7.44581 22.2134 7.52737C22.2045 7.50924 22.1955 7.49112 22.1865 7.473C22.2179 7.58627 22.2493 7.69953 22.2762 7.81733C22.2672 7.73125 22.2807 7.77656 22.3121 7.6497C22.348 7.49112 22.3524 7.31895 22.3166 7.15585C22.2403 6.82963 21.9982 6.59403 21.6754 6.53513C21.3391 6.4717 21.1104 6.6484 20.8548 6.84776C20.5992 7.04711 20.3436 7.25099 20.0881 7.45034C20.4423 7.72672 20.792 7.99856 21.1463 8.27494C21.3077 7.93966 21.5139 7.63157 21.8144 7.40504C22.1058 7.18756 22.2538 6.81604 22.0565 6.47623C21.8906 6.1908 21.4332 6.01863 21.1373 6.23611Z" fill="#727272"/>
</g>
<g id="Group_18">
<path id="Vector_17" d="M18.5052 13.884C18.3931 14.4277 18.2855 14.9714 18.1734 15.5196C18.0344 16.2128 18.7788 16.6115 19.2989 16.1811C19.4513 16.0542 19.5859 15.8956 19.6845 15.7235C19.7518 15.6057 19.8325 15.3656 19.8684 15.3067C19.7876 15.3882 19.7069 15.4698 19.6262 15.5513C19.6486 15.5377 19.6666 15.5241 19.689 15.506C19.5769 15.5377 19.4648 15.5694 19.3482 15.5966C19.3751 15.5921 19.402 15.5921 19.4289 15.5876C19.3168 15.5558 19.2047 15.5241 19.0881 15.4969C18.9805 15.4471 18.976 15.2704 19.0074 15.5015C19.0164 15.5604 19.0299 15.6102 19.0478 15.6646C19.1106 15.8685 19.2227 16.0497 19.3931 16.1766C19.55 16.2944 19.7338 16.3578 19.9311 16.3533C20.0522 16.3487 20.1643 16.317 20.2719 16.2626C20.3302 16.24 20.3795 16.2083 20.4244 16.1675C20.5409 16.0859 20.5096 16.0905 20.3347 16.172C20.2226 16.1403 20.1105 16.1086 19.9939 16.0814C20.0118 16.0905 20.0163 16.0995 20.0298 16.1358C20.3167 16.9558 21.6171 16.6024 21.3256 15.7733C21.2001 15.4154 21.0162 15.0846 20.671 14.9079C20.4916 14.8128 20.2674 14.7856 20.0701 14.8309C19.8728 14.8762 19.7563 15.0076 19.5859 15.0892C19.698 15.0575 19.8101 15.0257 19.9266 14.9986C19.9042 14.9986 19.8773 14.9986 19.8549 14.9986C19.967 15.0303 20.0791 15.062 20.1957 15.0892C20.3167 15.3021 20.3526 15.3338 20.3033 15.1843C20.2943 15.1254 20.2854 15.0665 20.2764 15.0076C20.245 14.8898 20.1957 14.7675 20.1329 14.6678C19.967 14.405 19.6935 14.2329 19.3841 14.2374C19.0792 14.2419 18.8012 14.4186 18.6577 14.6859C18.5366 14.9125 18.5456 15.0484 18.3393 15.2206C18.716 15.4426 19.0881 15.6601 19.4648 15.8821C19.5769 15.3384 19.6845 14.7947 19.7966 14.251C19.976 13.3902 18.6801 13.0277 18.5052 13.884Z" fill="#727272"/>
</g>
<g id="Group_19">
<path id="Vector_18" d="M17.9851 20.8297C17.8461 21.5592 17.7564 22.2931 17.734 23.0316C17.716 23.5482 18.3169 23.8744 18.7473 23.6206C18.9446 23.5028 19.0881 23.3443 19.1957 23.1404C19.2361 23.0634 19.3527 22.8867 19.3303 22.8187C19.3258 22.8096 19.2854 22.8685 19.3034 22.8595C19.1913 22.8912 19.0792 22.9229 18.9626 22.9501C18.9536 22.9546 18.9402 22.9546 18.9312 22.9592C18.8505 22.8776 18.7698 22.796 18.6891 22.7145C18.7653 22.8142 18.7563 22.8051 18.7653 22.9093C18.8146 23.4666 19.4782 23.8381 19.9132 23.3896C19.9625 23.3352 20.0118 23.2854 20.0656 23.2355C19.9715 23.2808 19.8728 23.2718 19.7787 23.2174C19.7204 23.1177 19.6621 23.0181 19.6038 22.9184C19.6127 22.9456 19.6217 22.9727 19.6352 22.9999C19.7607 23.3443 20.0925 23.5799 20.4647 23.4757C20.792 23.385 21.0611 22.9863 20.9355 22.6375C20.5858 21.677 19.5679 21.7993 18.9626 22.4291C19.3437 22.5876 19.7293 22.7507 20.1105 22.9093C20.0567 22.2524 19.7338 21.541 18.9626 21.5909C18.6487 21.609 18.3707 21.7948 18.2048 22.0621C18.1465 22.1572 18.1061 22.266 18.0613 22.3702C18.012 22.4834 17.9268 22.5242 18.0658 22.4427C18.4021 22.6375 18.7384 22.8323 19.0792 23.0316C19.0971 22.4109 19.1644 21.7993 19.2809 21.1876C19.4468 20.3359 18.151 19.9734 17.9851 20.8297Z" fill="#727272"/>
</g>
<g id="Group_20">
<path id="Vector_19" d="M18.6532 28.5908C18.8057 29.198 18.9895 29.7915 19.2047 30.376C19.3796 30.8517 19.9401 31.051 20.3302 30.675C20.5006 30.5074 20.6172 30.3125 20.6755 30.0769C20.6979 29.9818 20.7158 29.8685 20.7203 29.7734C20.7338 29.4834 20.7024 29.7235 20.7293 29.7099C20.6172 29.7417 20.5051 29.7734 20.3885 29.8006C20.4199 29.8006 20.4468 29.796 20.4782 29.796C20.3661 29.7643 20.254 29.7326 20.1374 29.7054C20.0477 29.6646 20.0746 29.6239 20.1464 29.7507C20.1822 29.8141 20.2136 29.8685 20.2585 29.9274C20.3975 30.1086 20.5678 30.231 20.7965 30.2627C20.9983 30.2899 21.1911 30.24 21.3615 30.1222C21.4557 30.0543 21.5409 29.9773 21.6036 29.8776C21.6305 29.8232 21.6574 29.7688 21.6799 29.7145C21.7695 29.5378 21.6933 29.5831 21.4512 29.8549C21.3301 29.8549 21.2135 29.8549 21.0925 29.8549C21.0387 29.8096 20.9893 29.7598 20.9355 29.7145C20.9041 29.6012 20.8728 29.4879 20.8459 29.3701C20.8459 29.3973 20.8459 29.4245 20.8459 29.4517C20.8324 30.3261 22.1776 30.3261 22.191 29.4517C22.2 28.9941 21.8861 28.6362 21.4512 28.5455C21.218 28.4957 20.9849 28.5455 20.792 28.686C20.6979 28.754 20.6217 28.831 20.5589 28.9261C20.5454 28.9533 20.532 28.985 20.514 29.0122C20.3975 29.2387 20.4288 29.2342 20.6127 28.9986C20.7248 28.9669 20.8369 28.9352 20.9535 28.908C20.931 28.9125 20.9086 28.9125 20.8862 28.9171C20.9983 28.9488 21.1104 28.9805 21.227 29.0077C21.4198 29.1028 21.3212 29.0711 21.2494 28.9442C21.1956 28.8446 21.1239 28.7494 21.0431 28.6769C20.7876 28.4459 20.4513 28.387 20.1329 28.5002C19.8773 28.5908 19.6845 28.7902 19.5545 29.0213C19.4827 29.1527 19.4469 29.284 19.42 29.429C19.4065 29.4925 19.42 29.6737 19.3796 29.7145C19.7563 29.8141 20.1284 29.9138 20.5051 30.0135C20.2898 29.429 20.106 28.831 19.9535 28.2284C19.7338 27.3857 18.438 27.7436 18.6532 28.5908Z" fill="#727272"/>
</g>
<g id="Group_21">
<path id="Vector_20" d="M19.3303 35.0834C19.5724 35.8038 19.8818 36.497 20.2629 37.1494C20.5364 37.6161 21.1418 37.5617 21.4243 37.1494C21.5005 37.0362 21.5543 36.9184 21.5902 36.787C21.5947 36.7462 21.5991 36.71 21.6081 36.6692C21.6799 36.4064 21.6171 36.4155 21.4108 36.7009C21.2898 36.7009 21.1732 36.7009 21.0521 36.7009C20.8638 36.642 20.949 36.6556 21.0476 36.7643C21.1194 36.8413 21.209 36.9229 21.3032 36.9773C21.496 37.086 21.7247 37.1268 21.9444 37.1087C22.4466 37.0724 22.7919 36.7371 22.9578 36.2795C23.2582 35.4595 21.9579 35.1015 21.6619 35.9171C21.7471 35.6905 21.9579 35.8174 21.922 35.7087C21.8951 35.6316 21.7381 35.5274 21.6664 35.4867C21.4467 35.3598 21.1821 35.3326 20.9445 35.4142C20.7248 35.4867 20.5499 35.6543 20.4378 35.8582C20.3392 36.0394 20.3661 36.3112 20.2584 36.4653C20.6441 36.4653 21.0342 36.4653 21.4198 36.4653C21.0925 35.908 20.8279 35.3371 20.6216 34.7255C20.3526 33.9009 19.0523 34.2543 19.3303 35.0834Z" fill="#727272"/>
</g>
<g id="Group_22">
<path id="Vector_21" d="M21.1014 42.8355C21.1059 43.2116 21.1597 43.5876 21.2763 43.941C21.3615 44.1993 21.5633 44.3896 21.8368 44.4258C22.0834 44.4575 22.3928 44.3442 22.5049 44.0996C22.5811 43.9365 22.6574 43.7734 22.7336 43.6148C22.7695 43.5378 22.8053 43.4653 22.8367 43.3883C22.8546 43.352 22.8726 43.3112 22.8905 43.275C22.9264 43.207 22.9264 43.207 22.8905 43.275C22.7919 43.3339 22.6932 43.3928 22.5946 43.4517C22.608 43.4472 22.626 43.4381 22.6394 43.4336C22.5184 43.4336 22.4018 43.4336 22.2807 43.4336C22.2583 43.4245 22.2314 43.4109 22.209 43.4019C22.1282 43.3203 22.0475 43.2387 21.9668 43.1572C21.8996 43.0439 21.9623 43.1391 21.9892 43.2161C22.0117 43.2886 22.0386 43.3565 22.061 43.429C22.1103 43.5695 22.1596 43.7145 22.2045 43.8549C22.3211 44.2038 22.6663 44.4303 23.034 44.3307C23.3658 44.24 23.6214 43.8413 23.5048 43.4925C23.312 42.9307 23.1506 42.0064 22.3704 42.1106C21.765 42.1921 21.5633 42.9352 21.3391 43.4154C21.7471 43.4698 22.1596 43.5242 22.5677 43.5786C22.4825 43.3112 22.4421 43.0938 22.4376 42.831C22.4332 42.4776 22.1327 42.1332 21.7651 42.1514C21.4108 42.1695 21.0969 42.4549 21.1014 42.8355Z" fill="#727272"/>
</g>
<g id="Group_23">
<path id="Vector_22" d="M27.2803 43.66C27.2444 43.9681 27.2085 44.2807 27.1727 44.5888C27.1368 44.8788 27.4058 45.1733 27.6659 45.2458C27.9708 45.3319 28.2533 45.1823 28.4237 44.9332C28.5448 44.7565 28.6658 44.5843 28.7869 44.4076C28.8407 44.326 28.899 44.249 28.9528 44.1675C28.9752 44.1357 28.9976 44.104 29.02 44.0723C29.1187 43.9364 29.1052 43.9454 28.9842 44.0995C28.8721 44.1312 28.76 44.1629 28.6434 44.1901C28.6658 44.1901 28.6838 44.1901 28.7062 44.1901C28.5941 44.1584 28.482 44.1267 28.3654 44.0995C28.2309 43.8639 28.186 43.8186 28.2309 43.9636C28.2443 44.0179 28.2533 44.0768 28.2667 44.1312C28.2892 44.2445 28.3116 44.3532 28.3385 44.4665C28.3878 44.7021 28.4102 44.9785 28.5313 45.1914C28.6479 45.3908 28.8407 45.5629 29.0649 45.6264C29.4102 45.7215 29.6926 45.5448 29.8944 45.273C30.1141 44.9785 29.9393 44.5118 29.6523 44.3442C29.307 44.1403 28.9528 44.2943 28.7331 44.5888C28.7241 44.6024 28.7151 44.616 28.7062 44.6251C28.899 44.5118 29.0918 44.3985 29.2891 44.2898C29.2756 44.2898 29.2622 44.2943 29.2487 44.2943C29.3608 44.326 29.4729 44.3577 29.5895 44.3849C29.7061 44.4438 29.7778 44.7746 29.7106 44.4393C29.6926 44.3442 29.6702 44.2535 29.6523 44.1584C29.6164 43.9908 29.585 43.8231 29.5492 43.6555C29.4684 43.3021 29.2577 42.9577 28.89 42.8535C28.482 42.7403 28.1591 42.9759 27.9305 43.284C27.7018 43.5966 27.4865 43.9183 27.2668 44.2354C27.6838 44.3487 28.1008 44.462 28.5223 44.5798C28.5582 44.2717 28.5941 43.959 28.6299 43.651C28.6703 43.284 28.2892 42.9713 27.9574 42.9713C27.5583 42.9804 27.3251 43.2976 27.2803 43.66Z" fill="#727272"/>
</g>
<g id="Group_24">
<path id="Vector_23" d="M27.926 31.2503C27.7601 31.9753 27.6794 32.7183 27.6928 33.4613C27.7018 34.1002 28.6344 34.4309 28.9483 33.8057C29.0828 33.5338 29.2174 33.2665 29.3519 32.9947C29.4505 32.7953 29.5223 32.5461 29.7016 32.4057C29.603 32.4646 29.5043 32.5235 29.4057 32.5824C29.4057 32.5778 29.4057 32.5733 29.4102 32.5688C29.1949 32.4012 28.9797 32.238 28.76 32.0704C28.8452 32.3921 28.9304 32.7138 29.0156 33.0355C29.1232 33.4387 29.6389 33.6833 30.0021 33.4432C30.0648 33.4024 30.1276 33.3571 30.1904 33.3164C30.9078 32.8361 30.2352 31.6581 29.5133 32.1429C29.4505 32.1837 29.3878 32.229 29.325 32.2698C29.6523 32.4057 29.9841 32.5416 30.3114 32.6775C30.2262 32.3558 30.1411 32.0342 30.0559 31.7125C29.9796 31.427 29.7016 31.2096 29.4057 31.2141C28.4596 31.2322 28.1367 32.4193 27.787 33.1261C28.204 33.2393 28.621 33.3526 29.0425 33.4704C29.0335 32.8406 29.0873 32.2335 29.2263 31.6173C29.4147 30.761 28.1188 30.3986 27.926 31.2503Z" fill="#727272"/>
</g>
<g id="Group_25">
<path id="Vector_24" d="M26.6436 21.0833C26.675 21.6179 26.7019 22.148 26.7332 22.6827C26.7691 23.3532 27.6211 23.6115 27.9887 23.027C28.2488 22.6102 28.5089 22.1979 28.769 21.781C28.3833 21.781 27.9932 21.781 27.6076 21.781C27.7018 21.9442 27.7601 22.0937 27.769 22.284C27.8004 22.882 28.4775 23.1675 28.9169 22.7642C29.2577 22.4561 29.4774 22.0846 29.6433 21.6542C29.316 21.7901 28.9842 21.926 28.6569 22.062C28.6569 22.071 28.6569 22.0801 28.6524 22.0846C28.5941 21.9849 28.5358 21.8853 28.4775 21.7856C28.491 21.8128 28.4999 21.8445 28.5134 21.8717C28.6524 22.2115 28.9573 22.4516 29.3429 22.3474C29.6568 22.2613 29.9527 21.8535 29.8137 21.5092C29.6971 21.2328 29.5761 21.0652 29.3339 20.884C28.9528 20.5985 28.4865 20.9247 28.3475 21.2917C28.2668 21.5001 28.1278 21.6542 27.9663 21.8037C28.3475 21.9623 28.7331 22.1254 29.1142 22.284C29.0918 21.8581 28.9842 21.4639 28.769 21.0969C28.5044 20.6484 27.8767 20.6665 27.6076 21.0969C27.3475 21.5137 27.0875 21.926 26.8274 22.3429C27.2444 22.4561 27.6614 22.5694 28.0829 22.6872C28.0515 22.1526 28.0246 21.6225 27.9932 21.0878C27.9394 20.2134 26.5942 20.2089 26.6436 21.0833Z" fill="#727272"/>
</g>
<g id="Group_26">
<path id="Vector_25" d="M27.0068 12.0989C26.9664 12.4432 26.9485 12.7876 26.9575 13.1319C26.9709 13.6031 27.5359 14.0381 27.9708 13.7209C28.195 13.5578 28.334 13.372 28.4103 13.1047C28.4282 13.0413 28.4461 12.9688 28.4551 12.9054C28.4641 12.8465 28.4999 12.8419 28.4506 12.8873C28.2175 13.1047 27.9708 13.4174 27.5987 12.9643C27.639 13.0141 27.6256 13.0096 27.5987 12.9507C27.6301 13.0186 27.6525 13.0957 27.6839 13.1636C27.7377 13.2814 27.8184 13.3856 27.9081 13.4763C28.1861 13.7526 28.5986 13.807 28.9349 13.6122C29.2532 13.4309 29.3564 12.996 29.177 12.6834C28.9887 12.3617 28.5762 12.2575 28.2578 12.4387C28.2444 12.4478 28.2264 12.4568 28.213 12.4659C28.3251 12.4342 28.4372 12.4025 28.5537 12.3753C28.5896 12.3708 28.9125 12.552 28.8856 12.561C28.9035 12.5973 28.9035 12.5973 28.89 12.5656C28.8766 12.5293 28.8631 12.4931 28.8452 12.4568C28.7914 12.3254 28.7286 12.2031 28.63 12.0944C28.4103 11.8633 28.0695 11.75 27.7601 11.8497C27.4686 11.9403 27.2758 12.1759 27.1817 12.4614C27.1592 12.5248 27.1503 12.5882 27.1323 12.6562C27.1234 12.6879 27.1144 12.7151 27.1099 12.7468C27.092 12.8057 27.092 12.8057 27.1144 12.7468C27.1413 12.6607 27.1996 12.5928 27.2893 12.5475C27.6256 12.7423 27.9619 12.9371 28.3026 13.1364C28.2937 12.7921 28.3116 12.4478 28.352 12.1034C28.3968 11.75 28.0112 11.4102 27.6794 11.4238C27.2803 11.4419 27.0561 11.7229 27.0068 12.0989Z" fill="#727272"/>
</g>
<g id="Group_27">
<path id="Vector_26" d="M26.5942 5.13057C26.4687 5.62895 26.5315 6.14092 26.796 6.5804C27.1099 7.11503 27.8318 6.95193 28.0246 6.4173C28.0964 6.21795 27.9887 6.53963 28.056 6.33574C28.0829 6.25872 28.1053 6.29497 28.0381 6.32668C27.8318 6.43542 27.5538 6.36293 27.491 6.09108C27.5762 6.44901 27.9753 6.66196 28.3206 6.56681C28.6793 6.46714 28.8766 6.09108 28.7914 5.72863C28.6703 5.21212 28.1143 4.93575 27.6166 5.05354C27.1278 5.17587 26.8902 5.6063 26.7288 6.05031C27.1368 5.99594 27.5493 5.94157 27.9574 5.8872C27.8901 5.7694 27.8811 5.77846 27.8677 5.63801C27.8766 5.7105 27.8722 5.61989 27.8722 5.59723C27.8811 5.39788 27.8453 5.67879 27.8901 5.48397C27.9753 5.13963 27.778 4.73186 27.4193 4.64578C27.074 4.57329 26.6884 4.75905 26.5942 5.13057Z" fill="#727272"/>
</g>
<g id="Group_28">
<path id="Vector_27" d="M7.36712 3.52677C7.16983 3.78955 6.99047 4.06593 6.83353 4.3559C6.56898 4.83162 7.01737 5.57466 7.59132 5.35266C7.79758 5.27564 7.99936 5.19408 8.20562 5.11706C7.9321 4.95848 7.65409 4.79991 7.37609 4.64133C7.41196 4.74554 7.4299 4.8135 7.42541 4.91771C7.42093 5.26204 7.73929 5.62903 8.098 5.59732C8.4343 5.57013 8.72127 5.48858 9.0217 5.3436C9.34902 5.18502 9.43422 4.70929 9.26383 4.4148C9.06653 4.07499 8.67195 4.01156 8.34462 4.17014C8.27736 4.20185 8.15181 4.23357 8.098 4.2381C8.3222 4.46463 8.5464 4.69117 8.77059 4.91771C8.77508 4.70023 8.74369 4.48276 8.67195 4.27887C8.55985 3.95719 8.20562 3.66722 7.84242 3.80315C7.63616 3.88017 7.43438 3.96172 7.22812 4.03874C7.47922 4.36949 7.7348 4.70476 7.98591 5.03551C8.14733 4.74554 8.3222 4.46916 8.51949 4.20638C8.73921 3.91188 8.56433 3.44522 8.27736 3.27758C7.94107 3.08276 7.58684 3.23227 7.36712 3.52677Z" fill="#727272"/>
</g>
<g id="Group_29">
<path id="Vector_28" d="M3.56026 11.1566C3.30468 11.7229 3.08496 12.3028 2.90561 12.9009C2.79351 13.2724 3.04012 13.6168 3.37642 13.7391C3.66339 13.8433 3.97278 13.7799 4.22388 13.6168C4.3315 13.5443 4.40324 13.4718 4.48395 13.3766C4.79334 13.0051 4.36737 13.4854 4.11627 13.1727C4.05798 13.0731 3.99969 12.9734 3.9414 12.8737C3.90552 12.7468 3.93243 13.0096 3.93243 13.0051C3.94588 13.1093 3.97278 13.218 4.02659 13.3132C4.12972 13.4899 4.31805 13.6349 4.51086 13.6892C4.87406 13.7889 5.34039 13.6485 5.49732 13.2769C5.64081 12.9417 5.59597 12.5475 5.25519 12.3481C4.9727 12.1805 4.47947 12.253 4.33598 12.5928C4.34943 12.5747 4.36289 12.5566 4.38082 12.543C4.47947 12.4841 4.57812 12.4252 4.67676 12.3663C4.81128 12.407 4.9458 12.4478 5.08032 12.4886C5.13861 12.5883 5.1969 12.6879 5.25519 12.7876C5.29106 12.9145 5.26416 12.6019 5.25519 12.5701C5.21932 12.4342 5.15654 12.3119 5.06686 12.2122C4.90096 12.0355 4.68573 11.9313 4.4436 11.9177C4.22388 11.9087 4.02211 11.9721 3.84275 12.099C3.75755 12.1579 3.68581 12.2258 3.61855 12.3074C3.34055 12.6336 3.53336 12.3572 3.73962 12.4297C3.89656 12.7106 4.05349 12.987 4.21043 13.2679C4.35392 12.7831 4.52431 12.3119 4.73057 11.8498C4.87854 11.5145 4.82473 11.1203 4.48844 10.921C4.1925 10.7443 3.70823 10.8213 3.56026 11.1566Z" fill="#727272"/>
</g>
<g id="Group_30">
<path id="Vector_29" d="M2.07158 19.1714C1.92809 19.9507 1.92809 20.7073 2.08054 21.4866C2.15677 21.8717 2.56929 22.0167 2.91007 21.9623C3.10737 21.9306 3.29121 21.8173 3.43021 21.6678C3.4885 21.6044 3.54231 21.5274 3.59163 21.4549C3.61854 21.4141 3.64095 21.3733 3.66337 21.328C3.70373 21.2646 3.69028 21.2691 3.61405 21.3326C3.49299 21.3326 3.3764 21.3326 3.25534 21.3326C3.28672 21.3416 3.31811 21.3507 3.3495 21.3597C3.25085 21.3008 3.15221 21.2419 3.05356 21.183C3.00424 21.0788 2.99975 21.0834 3.04459 21.1966C3.06701 21.251 3.08943 21.3054 3.11185 21.3597C3.18359 21.4957 3.28224 21.6044 3.40779 21.6859C3.70821 21.8898 3.98173 21.8762 4.30458 21.7267C4.63639 21.5772 4.7171 21.0879 4.54671 20.7979C4.34942 20.4536 3.95931 20.4037 3.6275 20.5533C3.60508 20.5623 3.57818 20.5759 3.55576 20.585C3.73063 20.5623 3.90102 20.5397 4.0759 20.517C4.04899 20.508 4.02209 20.5034 3.99519 20.4944C4.09383 20.5533 4.19248 20.6122 4.29113 20.6711C4.31803 20.7617 4.31803 20.7707 4.29561 20.7028C4.27319 20.6303 4.24629 20.5623 4.2149 20.4989C4.17454 20.4219 4.1297 20.3449 4.06693 20.2814C3.8786 20.0775 3.61854 19.9824 3.34501 20.0096C3.10737 20.0322 2.89662 20.15 2.73072 20.3222C2.65 20.4038 2.58275 20.4989 2.52445 20.5986C2.511 20.6258 2.49307 20.6529 2.47961 20.6801C2.39442 20.807 2.41684 20.7934 2.55136 20.6439C2.82488 20.8025 3.10288 20.961 3.38089 21.1196C3.27776 20.594 3.27327 20.0549 3.37192 19.5293C3.43918 19.1669 3.27327 18.7953 2.9011 18.6911C2.56929 18.605 2.13884 18.8089 2.07158 19.1714Z" fill="#727272"/>
</g>
<g id="Group_31">
<path id="Vector_30" d="M3.03115 28.9804C3.21947 29.361 3.40331 29.7416 3.59164 30.1222C3.75755 30.4574 4.21042 30.5345 4.51085 30.3668C4.75298 30.2309 4.91889 30.0134 4.99511 29.7416C5.03098 29.6193 5.0534 29.4652 5.03995 29.3384C5.0265 29.1934 5.08927 29.2341 5.01305 29.3021C4.9144 29.361 4.81575 29.4199 4.71711 29.4788C4.70814 29.4833 4.69917 29.4833 4.6902 29.4879C4.57811 29.4561 4.46601 29.4244 4.34942 29.3973C4.58259 29.5332 4.69469 29.7506 5.03547 29.7506C5.43902 29.7506 5.5287 29.5105 5.77083 29.2704C5.67219 29.3293 5.57354 29.3882 5.47489 29.4471C5.34486 29.3655 5.21483 29.284 5.08479 29.1979C5.1386 29.5604 5.59148 29.7597 5.91432 29.6736C6.29994 29.5649 6.43894 29.2024 6.38513 28.8354C6.32236 28.4277 5.94122 28.1241 5.54664 28.0833C5.08479 28.038 4.78437 28.2918 4.56465 28.6723C4.64537 28.5908 4.72608 28.5092 4.80679 28.4277C4.78437 28.4458 4.75746 28.4639 4.73504 28.482C4.84714 28.4503 4.95924 28.4186 5.07582 28.3914C5.0534 28.3914 5.0265 28.3914 5.00408 28.3914C5.11618 28.4231 5.22828 28.4549 5.34486 28.482C5.26415 28.4367 5.0534 28.2057 4.87405 28.1558C4.61846 28.0833 4.34942 28.1377 4.13868 28.2963C3.95035 28.4367 3.82032 28.6451 3.75306 28.8672C3.70822 29.0076 3.75755 29.293 3.6858 29.3927C3.76651 29.3112 3.84722 29.2296 3.92793 29.1481C3.90103 29.1617 3.87413 29.1798 3.84274 29.1934C4.14765 29.2749 4.45704 29.3565 4.76195 29.438C4.57362 29.0574 4.38978 28.6769 4.20145 28.2963C3.80687 27.5079 2.64553 28.1966 3.03115 28.9804Z" fill="#727272"/>
</g>
<g id="Group_32">
<path id="Vector_31" d="M7.18329 39.0749C7.16087 39.6594 7.76172 39.9901 8.2684 39.8315C8.51053 39.7545 8.68541 39.5824 8.80199 39.3649C8.81992 39.3286 8.83786 39.2879 8.8558 39.2516C8.95444 39.093 8.8558 39.1383 8.55089 39.3966C8.41189 39.3785 8.47466 39.3785 8.57331 39.4328C8.89167 39.6095 9.30867 39.5099 9.49252 39.1882C9.67187 38.8756 9.56874 38.4361 9.25038 38.2594C8.91857 38.0736 8.54192 37.9649 8.17424 38.1189C7.98591 38.2005 7.82897 38.3364 7.72136 38.5176C7.68997 38.5675 7.65859 38.6264 7.64065 38.6853C7.63168 38.7034 7.62271 38.7215 7.61375 38.7396C7.84691 38.4769 8.08904 38.4542 8.34463 38.6717C8.40292 38.7714 8.46121 38.871 8.5195 38.9707C8.52399 39.0069 8.52847 39.0432 8.53295 39.0794C8.54641 38.7215 8.21459 38.3817 7.86036 38.3998C7.47923 38.4134 7.19674 38.6943 7.18329 39.0749Z" fill="#727272"/>
</g>
<g id="Group_33">
<path id="Vector_32" d="M32.0378 5.40702C32.1185 5.81478 32.2575 6.19537 32.4324 6.57142C32.5983 6.92029 33.0511 6.96559 33.3516 6.81608C33.5219 6.72999 33.6609 6.57595 33.7506 6.40831C33.7775 6.35847 33.7955 6.3041 33.8224 6.24974C33.9659 5.93711 33.8179 6.40831 33.4726 6.37207C33.3605 6.34035 33.2484 6.30864 33.1318 6.28145C33.0556 6.2452 33.2439 6.36754 33.2439 6.36754C33.3157 6.4219 33.365 6.45362 33.4502 6.48987C33.6251 6.56689 33.8044 6.58048 33.9928 6.5533C34.3963 6.48533 34.634 6.22255 34.7864 5.85556C34.9254 5.51576 34.634 5.10799 34.3156 5.01737C33.93 4.90864 33.6296 5.1533 33.4861 5.4931C33.643 5.1986 33.8403 5.13517 34.0735 5.30281C34.0555 5.28469 34.0376 5.26657 34.0152 5.25297C33.93 5.16689 33.7686 5.07627 33.652 5.04456C33.4368 4.98566 33.2036 5.0219 33.0153 5.13517C32.8583 5.23032 32.7462 5.37983 32.67 5.54294C32.6521 5.58372 32.6296 5.62902 32.6117 5.67433C32.5624 5.81932 32.5893 5.68339 32.67 5.64715C32.9749 5.7287 33.2843 5.81025 33.5892 5.89181C33.4637 5.62449 33.3874 5.34359 33.3291 5.05362C33.2619 4.69116 32.8314 4.48728 32.4996 4.57789C32.1364 4.67304 31.9705 5.04456 32.0378 5.40702Z" fill="#727272"/>
</g>
<g id="Group_34">
<path id="Vector_33" d="M33.5982 13.1862C33.6834 13.6166 33.773 14.0471 33.8582 14.4775C34.0017 15.1888 34.9478 15.0574 35.1541 14.4775C35.2214 14.2827 35.3379 14.1558 35.4859 14.0199C35.1317 13.9746 34.7819 13.9293 34.4277 13.884C34.5443 14.1558 34.6653 14.4322 34.7819 14.704C34.9164 15.0166 35.4366 15.1526 35.7011 14.9487C35.8626 14.8264 35.9926 14.7176 36.0957 14.5364C36.1316 14.473 36.1719 14.3959 36.1944 14.3234C36.2033 14.2917 36.2168 14.26 36.2347 14.2328C36.3423 14.0335 36.1361 13.97 35.6115 14.0425C35.5621 14.405 35.9567 14.7221 36.284 14.7221C36.6876 14.7221 36.9073 14.4095 36.9566 14.0425C37.0329 13.4762 36.5082 12.9642 35.9657 12.9642C35.6922 12.9642 35.4455 13.0865 35.2617 13.2814C35.1765 13.372 35.1182 13.4717 35.0599 13.5804C35.0241 13.6529 34.8851 13.8794 35.0241 13.7752C35.329 13.8568 35.6384 13.9383 35.9433 14.0199C35.8267 13.748 35.7056 13.4717 35.589 13.1998C35.4052 12.7739 34.8178 12.8011 34.5308 13.0639C34.208 13.3584 34.0017 13.7118 33.8538 14.1196C34.2842 14.1196 34.7192 14.1196 35.1496 14.1196C35.0644 13.6891 34.9747 13.2587 34.8895 12.8283C34.7236 11.9675 33.4233 12.3299 33.5982 13.1862Z" fill="#727272"/>
</g>
<g id="Group_35">
<path id="Vector_34" d="M34.7774 23.5798C34.7371 23.9196 34.7774 24.2685 34.8671 24.5947C34.9792 24.9889 35.4904 25.2562 35.8536 25.0025C36.0912 24.8348 36.2347 24.6536 36.3379 24.3818C36.3648 24.3138 36.3872 24.2413 36.4096 24.1688C36.45 24.0238 36.4096 24.2187 36.293 24.2368C36.172 24.2368 36.0554 24.2368 35.9343 24.2368C35.8222 24.1915 35.7505 24.1235 35.7325 24.0238C35.7191 23.9785 35.7236 23.9921 35.7505 24.0646C35.7639 24.1054 35.7774 24.1507 35.7908 24.1915C35.867 24.3999 35.9747 24.5675 36.145 24.708C36.5127 25.007 36.9297 24.9572 37.2885 24.6763C37.5754 24.4497 37.5216 23.9514 37.2885 23.7158C37.006 23.4303 36.6248 23.4892 36.3379 23.7158C36.3244 23.7293 36.3065 23.7384 36.293 23.752C36.3917 23.6931 36.4903 23.6342 36.589 23.5753C36.571 23.5798 36.5531 23.5844 36.5352 23.5889C36.6562 23.5889 36.7728 23.5889 36.8939 23.5889C36.9746 23.6025 37.0912 23.8517 37.0418 23.7022C37.006 23.5844 36.9611 23.462 36.8983 23.3578C36.71 23.0497 36.3782 22.873 36.024 22.9093C35.7101 22.941 35.4545 23.1404 35.2841 23.4031C35.2124 23.5164 35.1631 23.6433 35.1227 23.7701C35.1093 23.8109 35.0824 23.8698 35.0779 23.9106C35.0734 23.9695 35.0644 23.897 35.1765 23.82C35.5038 23.9559 35.8357 24.0918 36.163 24.2277C36.1002 24.0057 36.0912 23.8064 36.1181 23.5753C36.1585 23.2083 35.7774 22.8957 35.4456 22.8957C35.0554 22.9002 34.8223 23.2128 34.7774 23.5798Z" fill="#727272"/>
</g>
<g id="Group_36">
<path id="Vector_35" d="M34.4053 31.5811C34.3694 32.0251 34.4053 32.4601 34.4725 32.8995C34.5532 33.4115 35.2752 33.5429 35.598 33.1986C35.7146 33.0762 35.8356 32.9539 35.9612 32.8406C36.0733 32.741 36.1899 32.6413 36.2796 32.5779C35.9522 32.4419 35.6204 32.306 35.2931 32.1701C35.3334 32.2879 35.3334 32.152 35.32 32.2788C35.329 32.1837 35.2662 32.3649 35.311 32.2879C35.1362 32.6096 35.2348 33.0309 35.5532 33.2167C35.8626 33.3979 36.2975 33.2982 36.4724 32.972C36.6652 32.6141 36.728 32.1973 36.5934 31.8076C36.4634 31.4361 35.9791 31.1235 35.607 31.3999C35.2662 31.6536 34.9478 31.9254 34.6564 32.2335C35.033 32.3332 35.4052 32.4329 35.7818 32.5325C35.737 32.2381 35.737 31.8937 35.7594 31.572C35.7863 31.2186 35.4321 30.8788 35.0868 30.8924C34.6922 30.9196 34.4367 31.2005 34.4053 31.5811Z" fill="#727272"/>
</g>
<g id="Group_37">
<path id="Vector_36" d="M33.9748 40.4569C33.7327 40.8692 33.5488 41.3222 33.4457 41.7934C33.365 42.1514 33.5533 42.5274 33.9165 42.6316C34.2932 42.7358 34.616 42.5048 34.746 42.1559C34.7864 42.0426 34.9209 41.798 34.9927 41.7028C34.6743 41.7028 34.3604 41.7028 34.0421 41.7028C33.9614 41.6031 33.9389 41.4944 33.9703 41.3675C33.912 41.73 34.0645 42.097 34.4411 42.2057C34.764 42.2963 35.2079 42.097 35.2707 41.73C35.3334 41.3539 35.2662 41.0232 34.9971 40.7423C34.764 40.4976 34.2707 40.4569 34.0466 40.7423C33.7865 41.0685 33.5982 41.3993 33.4502 41.7934C33.8806 41.9158 34.3156 42.0336 34.746 42.1559C34.8312 41.7753 34.9433 41.4763 35.1406 41.1455C35.3245 40.8284 35.2124 40.398 34.8985 40.2167C34.5801 40.0264 34.1631 40.1397 33.9748 40.4569Z" fill="#727272"/>
</g>
<g id="Group_38">
<path id="Vector_37" d="M38.8982 43.1708C38.6202 43.5378 38.4902 43.9908 38.4677 44.4484C38.4543 44.7158 38.6471 44.974 38.8803 45.0692C39.1448 45.1779 39.4004 45.1145 39.6156 44.9287C39.9474 44.6433 40.2792 44.3533 40.6111 44.0679C40.2568 44.0225 39.9071 43.9772 39.5528 43.9319C39.5259 43.8912 39.5394 43.8323 39.5439 43.787C39.5484 43.7552 39.6201 43.6465 39.5484 43.7598C39.3556 44.0724 39.4811 44.5073 39.7905 44.6886C40.1133 44.8789 40.5169 44.7565 40.7097 44.4439C40.9384 44.0769 40.9339 43.6103 40.7142 43.2387C40.4765 42.84 39.9878 42.8174 39.656 43.1028C39.3242 43.3882 38.9924 43.6782 38.6605 43.9637C39.0417 44.1222 39.4273 44.2853 39.8084 44.4439C39.8174 44.24 39.7726 44.5345 39.8174 44.3397C39.8353 44.2717 39.8533 44.1993 39.8757 44.1313C39.8398 44.2264 39.9295 44.0361 39.9295 44.0316C39.9654 43.9682 40.0057 43.9093 40.0506 43.8549C40.2703 43.5604 40.0954 43.0937 39.8084 42.9261C39.4721 42.7222 39.1224 42.8763 38.8982 43.1708Z" fill="#727272"/>
</g>
<g id="Group_39">
<path id="Vector_38" d="M41.3823 34.2724C41.2881 34.7889 41.2343 35.3099 41.2298 35.84C41.2209 36.506 42.158 36.7779 42.4853 36.1843C42.6871 35.8128 42.9248 35.4911 43.2207 35.1921C42.9472 35.2284 42.6781 35.2646 42.4046 35.2963C42.3912 35.2873 42.3732 35.2737 42.3598 35.2646C42.3015 35.1649 42.2432 35.0652 42.1849 34.9656C42.1715 34.9248 42.2163 34.7979 42.1715 34.9429C42.1401 35.0335 42.1221 35.1785 42.1177 35.2646C42.1087 35.4821 42.1715 35.695 42.297 35.8717C42.4405 36.0665 42.6781 36.1979 42.9248 36.1979C43.0593 36.1979 43.2162 36.1572 43.3328 36.0937C43.3552 36.0801 43.3732 36.0711 43.3956 36.0575C43.5032 35.9895 43.4718 35.985 43.3014 36.0439C43.1893 36.0122 43.0772 35.9805 42.9606 35.9533C42.7813 35.8627 42.7678 35.7585 42.7858 35.6271C42.7364 35.9895 42.8754 36.3565 43.2566 36.4652C43.5704 36.5513 44.0323 36.3565 44.0861 35.9895C44.1399 35.5999 44.122 35.2057 43.826 34.9112C43.6781 34.7662 43.4539 34.6801 43.2476 34.6847C43.1131 34.6892 42.9561 34.7345 42.8396 34.7979C42.8082 34.8161 42.6602 34.8795 42.7454 34.8614C42.8665 34.8614 42.9831 34.8614 43.1041 34.8614C43.0862 34.8568 43.0638 34.8478 43.0458 34.8432C43.1445 34.9021 43.2431 34.961 43.3418 35.0199C43.3866 35.396 43.427 35.4911 43.4673 35.3054C43.4853 35.2601 43.4942 35.2148 43.5032 35.1649C43.5256 35.0607 43.5346 34.952 43.5256 34.8432C43.5077 34.5442 43.3552 34.2588 43.0817 34.1274C42.8127 33.9915 42.4898 34.0096 42.2656 34.2316C41.8935 34.6076 41.5751 35.0335 41.3195 35.4957C41.7365 35.6089 42.1535 35.7222 42.575 35.84C42.5795 35.4368 42.6109 35.0335 42.6826 34.6348C42.7454 34.2724 42.584 33.9008 42.2118 33.7966C41.88 33.706 41.4451 33.9099 41.3823 34.2724Z" fill="#727272"/>
</g>
<g id="Group_40">
<path id="Vector_39" d="M42.288 24.9164C42.0952 25.3831 42.0907 25.9132 42.2387 26.3935C42.445 27.0549 43.3148 27.0232 43.5346 26.3935C43.6467 26.0672 43.8484 25.809 44.104 25.5825C43.7229 25.4239 43.3373 25.2608 42.9561 25.1022C42.9696 25.3333 42.9875 25.5643 43.001 25.7909C43.0279 26.1896 43.2879 26.4252 43.6736 26.4705C43.8888 26.4977 44.0861 26.4252 44.2654 26.3074C44.3417 26.2575 44.4089 26.1986 44.4672 26.1307C44.4896 26.099 44.5165 26.0718 44.539 26.0446C44.6197 25.9585 44.5524 25.9766 44.3327 26.099C44.2206 26.0672 44.1085 26.0355 43.9919 26.0083C43.956 25.9676 43.9157 25.9268 43.8798 25.886C43.8484 25.7727 43.817 25.6595 43.7901 25.5417C43.7901 25.5598 43.7901 25.5779 43.7946 25.596C43.826 25.4828 43.8574 25.3695 43.8843 25.2517C43.8753 25.2653 43.8664 25.2834 43.8574 25.297C43.4 26.0446 44.5659 26.7287 45.0187 25.9812C45.2878 25.5417 45.0636 24.9708 44.5928 24.7986C44.3461 24.708 44.095 24.7261 43.8664 24.853C43.7722 24.9028 43.6915 24.9753 43.6153 25.0524C43.5973 25.0705 43.5839 25.0931 43.5659 25.1113C43.4763 25.2019 43.5121 25.2019 43.6736 25.1113C43.8978 25.3378 44.122 25.5643 44.3461 25.7909C44.3327 25.5598 44.3148 25.3287 44.3013 25.1022C44.261 24.4996 43.6018 24.2232 43.1534 24.6219C42.723 25.007 42.427 25.4873 42.2387 26.031C42.6692 26.031 43.1041 26.031 43.5346 26.031C43.4494 25.7546 43.4763 25.5417 43.5839 25.2789C43.7229 24.9391 43.4314 24.5313 43.1131 24.4407C42.7274 24.332 42.427 24.5766 42.288 24.9164Z" fill="#727272"/>
</g>
<g id="Group_41">
<path id="Vector_40" d="M41.7276 13.005C41.7634 13.3856 41.8038 13.7707 41.8397 14.1513C41.871 14.4865 42.0683 14.7765 42.4226 14.8173C42.7454 14.8581 43.0772 14.6632 43.1624 14.3325C43.2342 14.0425 43.3328 13.7797 43.4763 13.5215C43.0907 13.5215 42.7006 13.5215 42.315 13.5215C42.3822 13.6484 42.4495 13.7752 42.5123 13.8975C42.7589 14.3642 43.4135 14.3098 43.6736 13.8975C43.696 13.8613 43.7274 13.8296 43.7274 13.816C43.7991 13.7526 43.7498 13.7571 43.5884 13.8296C43.5167 13.8704 43.4449 13.8794 43.3732 13.8658C43.2925 13.7843 43.2118 13.7027 43.131 13.6212C43.1266 13.603 43.1221 13.5849 43.1176 13.5668C43.3777 14.3959 44.678 14.0425 44.4135 13.2043C44.2789 12.7785 43.9112 12.5111 43.4629 12.5247C43.0279 12.5383 42.723 12.8645 42.5078 13.2089C42.8934 13.2089 43.2835 13.2089 43.6691 13.2089C43.6019 13.082 43.5346 12.9552 43.4718 12.8328C43.2387 12.3888 42.5481 12.3933 42.3105 12.8328C42.1177 13.1908 41.9652 13.5713 41.8621 13.97C42.3015 14.0289 42.7409 14.0924 43.1848 14.1513C43.149 13.7707 43.1086 13.3856 43.0727 13.005C43.0369 12.638 42.7903 12.3254 42.4002 12.3254C42.0639 12.3254 41.6917 12.638 41.7276 13.005Z" fill="#727272"/>
</g>
<g id="Group_42">
<path id="Vector_41" d="M38.396 5.40697C38.5664 5.84192 38.7771 6.20438 39.0731 6.56684C39.4138 6.98367 40.055 6.71182 40.1985 6.26781C40.3017 5.9416 40.3465 5.5882 40.3151 5.24839C39.8981 5.36166 39.4811 5.47493 39.0596 5.59273C39.1896 5.84645 39.3735 6.07752 39.5932 6.25875C39.8757 6.48982 40.2703 6.53512 40.5438 6.25875C40.7814 6.01862 40.8263 5.5293 40.5438 5.29823C40.4631 5.2348 40.3869 5.16231 40.3241 5.08529C40.2568 4.9992 40.3644 5.15325 40.3061 5.0581C40.2748 5.00826 40.2478 4.95843 40.2209 4.90859C40.0819 4.63674 39.7367 4.51441 39.4587 4.59144C39.1941 4.66393 38.9385 4.9539 38.9654 5.24839C38.9923 5.53383 38.9834 5.6471 38.8982 5.90535C39.2748 5.80568 39.647 5.706 40.0237 5.60632C39.9654 5.53836 39.9071 5.45228 39.8398 5.33448C39.8084 5.28011 39.777 5.22121 39.7456 5.16684C39.7367 5.15325 39.6649 4.98108 39.6874 5.04904C39.5528 4.70924 39.239 4.46911 38.8578 4.57331C38.544 4.6594 38.2615 5.06263 38.396 5.40697Z" fill="#727272"/>
</g>
<g id="Group_43">
<path id="Vector_42" d="M45.1891 4.88144C45.2429 5.16687 45.3506 5.44325 45.4985 5.69697C45.651 5.95522 45.9693 6.09115 46.2563 6.00959C46.5612 5.92351 46.7226 5.65619 46.7495 5.35264C46.7809 5.03548 46.8123 4.7138 46.8437 4.39665C46.5074 4.59147 46.1711 4.78629 45.8303 4.98565C46.0366 5.13969 46.2429 5.29827 46.4491 5.45231C46.7406 5.66979 47.2024 5.50215 47.3683 5.20765C47.5701 4.86332 47.4177 4.49633 47.1262 4.27885C46.9199 4.1248 46.7137 3.96623 46.5074 3.81218C46.3191 3.67173 46.0187 3.69891 45.8303 3.81218C45.6106 3.94357 45.5209 4.15199 45.4985 4.40118C45.4671 4.71833 45.4358 5.04001 45.4044 5.35717C45.8214 5.2439 46.2384 5.13063 46.6599 5.01283C46.5523 4.8316 46.5254 4.74552 46.485 4.52351C46.4177 4.16105 45.9873 3.95717 45.6555 4.04778C45.2878 4.14746 45.1264 4.51898 45.1891 4.88144Z" fill="#727272"/>
</g>
<g id="Group_44">
<path id="Vector_43" d="M48.1754 13.0367C48.2382 13.4128 48.3279 13.7753 48.449 14.1377C48.588 14.5681 49.0364 14.7494 49.4354 14.5455C49.682 14.4186 49.839 14.183 49.9018 13.9157C49.9331 13.7934 49.9376 13.662 49.9466 13.5306C49.9466 13.4853 49.9511 13.44 49.9556 13.3947C49.9466 13.585 49.821 13.7073 49.5744 13.7707C49.4623 13.739 49.3502 13.7073 49.2337 13.6801C49.7628 13.9429 50.1753 14.1196 50.7806 13.9837C51.6236 13.7934 51.2694 12.4795 50.4219 12.6743C50.2112 12.7241 50.0901 12.5973 49.9107 12.5067C49.5969 12.3526 49.2381 12.3753 48.9646 12.5927C48.7584 12.7558 48.6642 12.9824 48.6283 13.2406C48.6149 13.3403 48.6104 13.4355 48.6014 13.5351C48.5925 13.6212 48.5969 13.6257 48.6059 13.5578C48.5611 13.7118 48.6104 13.6484 48.7584 13.3766C49.0857 13.5125 49.4175 13.6484 49.7448 13.7843C49.6282 13.4219 49.5386 13.0594 49.4713 12.6833C49.4085 12.3209 48.9691 12.117 48.6418 12.2076C48.2651 12.3028 48.1127 12.6743 48.1754 13.0367Z" fill="#727272"/>
</g>
<g id="Group_45">
<path id="Vector_44" d="M49.7403 22.8685C49.6955 23.2128 49.6462 23.5572 49.6013 23.9015C49.561 24.205 49.6282 24.5041 49.9107 24.6672C50.1439 24.8076 50.5474 24.794 50.7268 24.563C50.8254 24.4316 50.9241 24.3228 51.081 24.2685C50.7985 24.051 50.5116 23.8335 50.2291 23.6115C50.238 23.8834 50.2425 24.1552 50.2515 24.4271C50.265 24.8801 50.6685 25.1882 51.1034 25.084C51.3187 25.0342 51.498 24.9254 51.6684 24.7895L51.8343 24.6581C51.8209 24.64 51.6057 24.6536 51.5563 24.5992C51.498 24.4995 51.4397 24.3999 51.3815 24.3002C51.3904 24.3228 51.3949 24.3455 51.4039 24.3682C51.6864 25.1882 52.9867 24.8348 52.6997 24.0057C52.5428 23.5572 52.1841 23.3034 51.7088 23.317C51.516 23.3216 51.3142 23.385 51.1483 23.4847C51.0138 23.5662 50.8882 23.7339 50.7358 23.7701C51.0183 23.9876 51.3052 24.205 51.5877 24.4271C51.5787 24.1552 51.5743 23.8834 51.5653 23.6115C51.5563 23.1947 51.1393 22.8096 50.7133 22.9546C50.3412 23.086 50.0094 23.2853 49.7672 23.6025C50.1439 23.8245 50.5161 24.0419 50.8927 24.2639C50.9375 23.9196 50.9869 23.5753 51.0317 23.2309C51.081 22.8685 50.9465 22.5015 50.5609 22.3928C50.256 22.3067 49.7897 22.5015 49.7403 22.8685Z" fill="#727272"/>
</g>
<g id="Group_46">
<path id="Vector_45" d="M47.8078 34.1228C47.7136 34.5079 47.6194 34.893 47.5298 35.2781C47.4446 35.6315 47.6374 36.0212 48.0006 36.1163C48.3234 36.2024 48.6328 36.139 48.8974 35.926C49.1081 35.7538 49.1843 35.4865 49.3771 35.3189C49.2785 35.3778 49.1798 35.4367 49.0812 35.4956C49.1126 35.482 49.144 35.4684 49.1798 35.4548C49.0588 35.4548 48.9422 35.4548 48.8211 35.4548C48.8525 35.4593 48.8839 35.4684 48.9198 35.4729C48.7853 35.3687 48.6507 35.2645 48.5162 35.1603C48.5072 35.1059 48.5117 35.1195 48.5252 35.2101C48.5566 35.2872 48.588 35.3642 48.6238 35.4412C48.7135 35.5907 48.8525 35.6949 49.005 35.7629C49.1664 35.8354 49.3457 35.8445 49.5206 35.8082C49.5789 35.8037 49.6372 35.7856 49.691 35.7629C49.9556 35.6768 49.9018 35.6496 49.5296 35.6859C49.4489 35.6043 49.3682 35.5228 49.2875 35.4412C49.2964 35.4548 49.3099 35.4729 49.3188 35.4865C49.2875 35.3733 49.2561 35.26 49.2292 35.1422C49.2292 35.1603 49.2292 35.183 49.2247 35.2011C49.1843 36.0755 50.5295 36.0755 50.5699 35.2011C50.5878 34.8296 50.3367 34.5169 49.9914 34.4082C49.83 34.3584 49.6507 34.3538 49.4847 34.3946C49.4265 34.4082 49.1978 34.4535 49.265 34.4626C49.3771 34.4943 49.4892 34.526 49.6058 34.5532C49.5834 34.5396 49.5655 34.5215 49.543 34.5079C49.6237 34.5894 49.7045 34.671 49.7852 34.7525C49.7538 34.6891 49.682 34.449 49.5699 34.3312C49.3906 34.15 49.0633 34.0684 48.8211 34.1364C48.6238 34.1907 48.4534 34.3085 48.3189 34.458C48.2472 34.5396 48.1844 34.6302 48.1306 34.7254C48.1127 34.7571 48.0992 34.7888 48.0813 34.816C47.9557 34.9881 48.0499 34.9836 48.3638 34.7979C48.5207 35.0788 48.6776 35.3551 48.8346 35.636C48.9287 35.2509 49.0229 34.8658 49.1126 34.4807C49.3099 33.6335 48.014 33.271 47.8078 34.1228Z" fill="#727272"/>
</g>
<g id="Group_47">
<path id="Vector_46" d="M46.3819 42.2963C46.4805 42.3733 46.5792 42.4503 46.6778 42.5273C46.9648 42.7539 47.4311 42.5726 47.597 42.2827C47.7988 41.9338 47.6463 41.5759 47.3549 41.3539C47.2562 41.2768 47.1576 41.1998 47.0589 41.1228C46.772 40.8963 46.3056 41.0775 46.1397 41.3675C45.938 41.7163 46.0949 42.0697 46.3819 42.2963Z" fill="#727272"/>
</g>
</g>
</g>
<defs>
<clipPath id="clip0_4_3354">
<rect width="55" height="48.2388" fill="white" transform="translate(0 0.223877)"/>
</clipPath>
</defs>
</svg>
